<?xml version="1.0" encoding="UTF-8"?>
<!-- Generator: Adobe Illustrator 13.0.2, SVG Export Plug-In . SVG Version: 6.00 Build 14948)  -->
<!DOCTYPE svg PUBLIC "-//W3C//DTD SVG 1.1//EN" "http://www.w3.org/Graphics/SVG/1.1/DTD/svg11.dtd">
<svg version="1.1" id="svg2" xmlns:dc="http://purl.org/dc/elements/1.1/" xmlns:cc="http://creativecommons.org/ns#" xmlns:rdf="http://www.w3.org/1999/02/22-rdf-syntax-ns#" xmlns:svg="http://www.w3.org/2000/svg" xmlns:sodipodi="http://sodipodi.sourceforge.net/DTD/sodipodi-0.dtd" xmlns:inkscape="http://www.inkscape.org/namespaces/inkscape" inkscape:output_extension="org.inkscape.output.svg.inkscape" sodipodi:version="0.32" sodipodi:docname="copyright term.svg" inkscape:version="0.46" xmlns="http://www.w3.org/2000/svg" xmlns:xlink="http://www.w3.org/1999/xlink" x="0px" y="0px" width="625px" height="388px" viewBox="30.5 62.5 625 388" enable-background="new 30.5 62.5 625 388" xml:space="preserve">
<defs>
	
	
		<inkscape:perspective id="perspective10" inkscape:vp_z="744.09448 : 526.18109 : 1" inkscape:vp_y="0 : 1000 : 0" inkscape:vp_x="0 : 526.18109 : 1" sodipodi:type="inkscape:persp3d" inkscape:persp3d-origin="372.04724 : 350.78739 : 1">
		</inkscape:perspective>
	
		<inkscape:perspective id="perspective2464" inkscape:vp_z="744.09448 : 526.18109 : 1" inkscape:vp_y="0 : 1000 : 0" inkscape:vp_x="0 : 526.18109 : 1" sodipodi:type="inkscape:persp3d" inkscape:persp3d-origin="372.04724 : 350.78739 : 1">
		</inkscape:perspective>
</defs>
<sodipodi:namedview id="base" showgrid="true" inkscape:cy="214.96828" inkscape:cx="200.30427" inkscape:zoom="4" pagecolor="#ffffff" objecttolerance="10" guidetolerance="10" gridtolerance="10000" borderopacity="1.0" bordercolor="#666666" inkscape:snap-global="true" inkscape:window-y="-4" inkscape:window-x="-4" inkscape:window-height="968" inkscape:window-width="1280" inkscape:current-layer="g3552" inkscape:document-units="px" inkscape:pageshadow="2" inkscape:pageopacity="0.0">
	<inkscape:grid type="xygrid" id="grid2470"/>
</sodipodi:namedview>
<g id="layer1" inkscape:label="Layer 1" inkscape:groupmode="layer">
	<g id="g3552">
		<path id="SBCTEA" inkscape:label="#path3673" sodipodi:nodetypes="ccccccccccccccc" fill="#800080" d="M385,235h-97.5v35h-125v35    H95v70h545V112.5h-75v25H427.5v50H385V235z"/>
		<path id="_x31_976act" inkscape:label="#path3673" sodipodi:nodetypes="ccccccccccccc" fill="#0000FF" d="M385,235h-97.5v35h-125    v35H95v70h520V162.5h-50v25H385V235z"/>
		<path id="_x36_2-74acts" inkscape:label="#path3673" sodipodi:nodetypes="cccccccccccc" fill="#008000" d="M385,235h-97.5v35h-125    v35H95v70h470V235H415l-30-30V235z"/>
		<path id="_x31_909act" inkscape:label="#path3671" sodipodi:nodetypes="ccccccccc" fill="#FFE696" d="M95,305v70h470V235H287.5v35    h-125v35H95z"/>
		<path id="_x31_831act" inkscape:label="#path3669" sodipodi:nodetypes="ccccccc" fill="#FF7F00" d="M95,305v70h297.5V270h-230v35    H95z"/>
		<path id="_x31_790act" inkscape:label="#path3667" sodipodi:nodetypes="ccccc" fill="#FF0000" d="M95,305v70h102.5v-70H95z"/>
		<g id="g2553">
			<path id="path2385" sodipodi:nodetypes="cc" fill="none" stroke="#000000" d="M95,75h545"/>
			<path id="path2387" sodipodi:nodetypes="cc" fill="none" stroke="#000000" d="M95,100h545"/>
			<path id="path2389" sodipodi:nodetypes="cc" fill="none" stroke="#000000" d="M95,125h545"/>
			<path id="path2391" sodipodi:nodetypes="cc" fill="none" stroke="#000000" d="M95,150h545"/>
			<path id="path2393" sodipodi:nodetypes="cc" fill="none" stroke="#000000" d="M95,175h545"/>
			<path id="path2395" sodipodi:nodetypes="cc" fill="none" stroke="#000000" d="M95,200h545"/>
			<path id="path2397" sodipodi:nodetypes="cc" fill="none" stroke="#000000" d="M95,225h545"/>
			<path id="path2399" sodipodi:nodetypes="cc" fill="none" stroke="#000000" d="M95,250h545"/>
			<path id="path2401" sodipodi:nodetypes="cc" fill="none" stroke="#000000" d="M95,275h545"/>
			<path id="path2403" sodipodi:nodetypes="cc" fill="none" stroke="#000000" d="M95,300h545"/>
			<path id="path2405" sodipodi:nodetypes="cc" fill="none" stroke="#000000" d="M95,325h545"/>
			<path id="path2407" sodipodi:nodetypes="cc" fill="none" stroke="#000000" d="M95,350h545"/>
			<path id="path2409" sodipodi:nodetypes="cc" fill="none" stroke="#000000" d="M95,375h545"/>
		</g>
		<g id="g2568">
			<path id="path2411" sodipodi:nodetypes="cc" fill="none" stroke="#000000" d="M320,375V75"/>
			<path id="path2413" sodipodi:nodetypes="cc" fill="none" stroke="#000000" d="M345,375V75"/>
			<path id="path2415" sodipodi:nodetypes="cc" fill="none" stroke="#000000" d="M370,375V75"/>
			<path id="path2417" sodipodi:nodetypes="cc" fill="none" stroke="#000000" d="M395,375V75"/>
			<path id="path2419" sodipodi:nodetypes="cc" fill="none" stroke="#000000" d="M420,375V75"/>
			<path id="path2421" sodipodi:nodetypes="cc" fill="none" stroke="#000000" d="M295,375V75"/>
			<path id="path2423" sodipodi:nodetypes="cc" fill="none" stroke="#000000" d="M270,375V75"/>
			<path id="path2425" sodipodi:nodetypes="cc" fill="none" stroke="#000000" d="M245,375V75"/>
			<path id="path2427" sodipodi:nodetypes="cc" fill="none" stroke="#000000" d="M220,375V75"/>
			<path id="path2429" sodipodi:nodetypes="cc" fill="none" stroke="#000000" d="M195,375V75"/>
			<path id="path2431" sodipodi:nodetypes="cc" fill="none" stroke="#000000" d="M170,375V75"/>
			<path id="path2433" sodipodi:nodetypes="cc" fill="none" stroke="#000000" d="M145,375V75"/>
			<path id="path2435" sodipodi:nodetypes="cc" fill="none" stroke="#000000" d="M120,375V75"/>
			<path id="path2437" sodipodi:nodetypes="cc" fill="none" stroke="#000000" d="M95,375V75"/>
			<path id="path2439" sodipodi:nodetypes="cc" fill="none" stroke="#000000" d="M445,375V75"/>
			<path id="path2441" sodipodi:nodetypes="cc" fill="none" stroke="#000000" d="M470,375V75"/>
			<path id="path2443" sodipodi:nodetypes="cc" fill="none" stroke="#000000" d="M495,375V75"/>
			<path id="path2445" sodipodi:nodetypes="cc" fill="none" stroke="#000000" d="M520,375V75"/>
			<path id="path2447" sodipodi:nodetypes="cc" fill="none" stroke="#000000" d="M545,375V75"/>
			<path id="path2449" sodipodi:nodetypes="cc" fill="none" stroke="#000000" d="M570,375V75"/>
			<path id="path2451" sodipodi:nodetypes="cc" fill="none" stroke="#000000" d="M595,375V75"/>
			<path id="path2453" sodipodi:nodetypes="cc" fill="none" stroke="#000000" d="M620,375V75"/>
			<path id="path2455" sodipodi:nodetypes="cc" fill="none" stroke="#000000" d="M640,375V75"/>
		</g>
		<g id="g2813">
			<text transform="matrix(1, 0, 0, 1, 261.915, 440)" font-family="'BitstreamVeraSans-Bold'" font-size="14">Year Copyright Term Began</text>
			<text transform="matrix(0, -1, 1, 0, 48.5, 364.143)" font-family="'BitstreamVeraSans-Bold'" font-size="14">Duration of Copyright Term (years)</text>
			<g id="g2525">
				<text transform="matrix(1, 0, 0, 1, 60.4551, 80)" font-family="'BitstreamVeraSans-Roman'" font-size="12">120</text>
				<text transform="matrix(1, 0, 0, 1, 60.4551, 105)" font-family="'BitstreamVeraSans-Roman'" font-size="12">110</text>
				<text transform="matrix(1, 0, 0, 1, 60.4551, 130)" font-family="'BitstreamVeraSans-Roman'" font-size="12">100</text>
				<text transform="matrix(1, 0, 0, 1, 68.0898, 155)" font-family="'BitstreamVeraSans-Roman'" font-size="12">90</text>
				<text transform="matrix(1, 0, 0, 1, 68.0898, 180)" font-family="'BitstreamVeraSans-Roman'" font-size="12">80</text>
				<text transform="matrix(1, 0, 0, 1, 68.0898, 205)" font-family="'BitstreamVeraSans-Roman'" font-size="12">70</text>
				<text transform="matrix(1, 0, 0, 1, 68.0898, 230)" font-family="'BitstreamVeraSans-Roman'" font-size="12">60</text>
				<text transform="matrix(1, 0, 0, 1, 68.0898, 255)" font-family="'BitstreamVeraSans-Roman'" font-size="12">50</text>
				<text transform="matrix(1, 0, 0, 1, 68.0898, 280)" font-family="'BitstreamVeraSans-Roman'" font-size="12">40</text>
				<text transform="matrix(1, 0, 0, 1, 68.0898, 305)" font-family="'BitstreamVeraSans-Roman'" font-size="12">30</text>
				<text transform="matrix(1, 0, 0, 1, 68.0898, 330)" font-family="'BitstreamVeraSans-Roman'" font-size="12">20</text>
				<text transform="matrix(1, 0, 0, 1, 68.0898, 355)" font-family="'BitstreamVeraSans-Roman'" font-size="12">10</text>
				<text transform="matrix(1, 0, 0, 1, 75.7246, 380)" font-family="'BitstreamVeraSans-Roman'" font-size="12">0</text>
			</g>
			<g id="g2765">
				<text transform="matrix(0, -1, 1, 0, 100, 418.82)" font-family="'BitstreamVeraSans-Roman'" font-size="12">1790</text>
				<text transform="matrix(0, -1, 1, 0, 125, 418.82)" font-family="'BitstreamVeraSans-Roman'" font-size="12">1800</text>
				<text transform="matrix(0, -1, 1, 0, 150, 418.82)" font-family="'BitstreamVeraSans-Roman'" font-size="12">1810</text>
				<text transform="matrix(0, -1, 1, 0, 175, 418.82)" font-family="'BitstreamVeraSans-Roman'" font-size="12">1820</text>
				<text transform="matrix(0, -1, 1, 0, 200, 418.82)" font-family="'BitstreamVeraSans-Roman'" font-size="12">1830</text>
				<text transform="matrix(0, -1, 1, 0, 225, 418.82)" font-family="'BitstreamVeraSans-Roman'" font-size="12">1840</text>
				<text transform="matrix(0, -1, 1, 0, 250, 418.82)" font-family="'BitstreamVeraSans-Roman'" font-size="12">1850</text>
				<text transform="matrix(0, -1, 1, 0, 275, 418.82)" font-family="'BitstreamVeraSans-Roman'" font-size="12">1860</text>
				<text transform="matrix(0, -1, 1, 0, 300, 418.82)" font-family="'BitstreamVeraSans-Roman'" font-size="12">1870</text>
				<text transform="matrix(0, -1, 1, 0, 325, 418.82)" font-family="'BitstreamVeraSans-Roman'" font-size="12">1880</text>
				<text transform="matrix(0, -1, 1, 0, 350, 418.82)" font-family="'BitstreamVeraSans-Roman'" font-size="12">1890</text>
				<text transform="matrix(0, -1, 1, 0, 375, 418.82)" font-family="'BitstreamVeraSans-Roman'" font-size="12">1900</text>
				<text transform="matrix(0, -1, 1, 0, 400, 418.82)" font-family="'BitstreamVeraSans-Roman'" font-size="12">1910</text>
				<text transform="matrix(0, -1, 1, 0, 425, 418.82)" font-family="'BitstreamVeraSans-Roman'" font-size="12">1920</text>
				<text transform="matrix(0, -1, 1, 0, 450, 418.82)" font-family="'BitstreamVeraSans-Roman'" font-size="12">1930</text>
				<text transform="matrix(0, -1, 1, 0, 475, 418.82)" font-family="'BitstreamVeraSans-Roman'" font-size="12">1940</text>
				<text transform="matrix(0, -1, 1, 0, 500, 418.82)" font-family="'BitstreamVeraSans-Roman'" font-size="12">1950</text>
				<text transform="matrix(0, -1, 1, 0, 525, 418.82)" font-family="'BitstreamVeraSans-Roman'" font-size="12">1960</text>
				<text transform="matrix(0, -1, 1, 0, 550, 418.82)" font-family="'BitstreamVeraSans-Roman'" font-size="12">1970</text>
				<text transform="matrix(0, -1, 1, 0, 575, 418.82)" font-family="'BitstreamVeraSans-Roman'" font-size="12">1980</text>
				<text transform="matrix(0, -1, 1, 0, 600, 418.82)" font-family="'BitstreamVeraSans-Roman'" font-size="12">1990</text>
				<text transform="matrix(0, -1, 1, 0, 625, 418.82)" font-family="'BitstreamVeraSans-Roman'" font-size="12">2000</text>
				<text transform="matrix(0, -1, 1, 0, 645, 418.82)" font-family="'BitstreamVeraSans-Roman'" font-size="12">2008</text>
			</g>
		</g>
		<g id="g3529" transform="translate(-0.0471333, 225.106)">
			<polygon id="rect2691" fill="#FFFFFF" stroke="#000000" stroke-width="1.0197" points="103,-138 307.047,-138.051 307.047,1.894 103,1.946"/>
			<g id="g3483">
				<rect id="rect3463" x="118" y="-123" fill="#800080" stroke="#000000" width="10" height="10"/>
				<rect id="rect3465" x="118" y="-103" fill="#0000FF" stroke="#000000" width="10" height="10"/>
				<rect id="rect3467" x="118" y="-83" fill="#008000" stroke="#000000" width="10" height="10"/>
				<rect id="rect3469" x="118" y="-63" fill="#FFE696" stroke="#000000" width="10" height="10"/>
				<rect id="rect3471" x="118" y="-43" fill="#FF7F00" stroke="#000000" width="10" height="10"/>
				<rect id="rect3475" x="118" y="-23" fill="#FF0000" stroke="#000000" width="10" height="10"/>
			</g>
			<g id="g3515">
				<text transform="matrix(1, 0, 0, 1, 133, -113)" font-family="'BitstreamVeraSans-Roman'" font-size="12">1998 Act (Sonny Bono Act)</text>
				<text transform="matrix(1, 0, 0, 1, 133, -93.0002)" font-family="'BitstreamVeraSans-Roman'" font-size="12">1976 Act</text>
				<text transform="matrix(1, 0, 0, 1, 133, -73.0002)" font-family="'BitstreamVeraSans-Roman'" font-size="12">1962-74 Acts</text>
				<text transform="matrix(1, 0, 0, 1, 133, -53.0002)" font-family="'BitstreamVeraSans-Roman'" font-size="12">1909 Act</text>
				<text transform="matrix(1, 0, 0, 1, 133, -13.0002)" font-family="'BitstreamVeraSans-Roman'" font-size="12">1790 Act</text>
				<text transform="matrix(1, 0, 0, 1, 133, -33.0002)" font-family="'BitstreamVeraSans-Roman'" font-size="12">1831 Act</text>
			</g>
		</g>
	</g>
</g>
<rect x="30.5" y="62.5" fill="none" width="625" height="388"/>
</svg>